<?xml version="1.0" encoding="UTF-8" standalone="no"?>
<!-- Uploaded to: SVG Repo, www.svgrepo.com, Generator: SVG Repo Mixer Tools -->

<svg
   fill="#000000"
   height="105"
   width="235"
   version="1.1"
   id="Capa_1"
   viewBox="0 0 16.74375 7.48125"
   xml:space="preserve"
   sodipodi:docname="sword.svg"
   inkscape:version="1.3 (0e150ed6c4, 2023-07-21)"
   xmlns:inkscape="http://www.inkscape.org/namespaces/inkscape"
   xmlns:sodipodi="http://sodipodi.sourceforge.net/DTD/sodipodi-0.dtd"
   xmlns="http://www.w3.org/2000/svg"
   xmlns:svg="http://www.w3.org/2000/svg"><defs
   id="defs1" /><sodipodi:namedview
   id="namedview1"
   pagecolor="#ffffff"
   bordercolor="#000000"
   borderopacity="0.25"
   inkscape:showpageshadow="2"
   inkscape:pageopacity="0.0"
   inkscape:pagecheckerboard="0"
   inkscape:deskcolor="#d1d1d1"
   inkscape:zoom="4.065"
   inkscape:cx="140.4674"
   inkscape:cy="76.383764"
   inkscape:window-width="1920"
   inkscape:window-height="1009"
   inkscape:window-x="-8"
   inkscape:window-y="-8"
   inkscape:window-maximized="1"
   inkscape:current-layer="Capa_1" />&#10;<path
   d="m 16.447566,3.8734386 -1.319841,-1.277677 -8.7131173,0.03708 -0.0334,-1.183678 0.368562,-0.78269701 c 0.06073,-0.128485 0.02234,-0.279205 -0.09316,-0.367006 -0.1155,-0.0878 -0.270246,-0.08366 -0.376701,0.01017 l -1.135383,1.00190101 0.04901,1.737183 -3.006968,0.01294 -0.405944,-0.392976 c -0.18729,-0.181307 -0.483615,-0.180045 -0.660631,0.0028 l -0.91076602,0.940833 c -0.177015,0.182857 -0.168659,0.479067 0.01863,0.660374 l 0.96363102,0.932848 c 0.187291,0.181307 0.483616,0.180046 0.660631,-0.0028 l 0.482911,-0.498847 2.905147,-0.01236 0.04933,1.748509 1.187094,0.825742 c 0.118256,0.08256 0.272102,0.07218 0.374108,-0.02483 0.101992,-0.09702 0.119777,-0.249849 0.04297,-0.371942 l -0.376103,-0.596845 -0.03313,-1.174094 8.7648023,0.01324 z M 1.5534127,4.9135566 c -0.02132,0.02202 -0.05705,0.02217 -0.0796,3.37e-4 L 0.51017668,3.9810466 c -0.02255,-0.02183 -0.02356,-0.05756 -0.0022,-0.07957 L 1.4187447,2.9606526 c 0.02132,-0.02202 0.05705,-0.02217 0.0796,-3.38e-4 l 0.107236,0.10381 0.856396,0.829038 c 0.02255,0.02183 0.02356,0.05756 0.0022,0.07957 l -0.710179,0.733615 z m 1.180822,-0.622057 0.02866,-0.0296 c 0.177015,-0.182857 0.168658,-0.479067 -0.01863,-0.660374 l -0.135313,-0.130991 2.59662,-0.01105 0.01161,0.411501 0.01156,0.409757 z m 3.519345,2.324492 -0.559388,-0.388984 -0.04337,-1.537097 v 0 l -0.02321,-0.822707 -0.06682,-2.368227 0.579459,-0.51131001 -0.172701,0.36668401 0.03613,1.280673 v 0 l 0.03462,1.226947 0.07127,2.526205 z m 0.219286,-1.928562 -0.02312,-0.819514 -0.02326,-0.82445 8.5425853,-0.03635 0.633709,0.613465 -8.5427273,0.0365 c -0.113589,4.79e-4 -0.202807,0.09264 -0.199601,0.206189 0.0016,0.05662 0.026,0.107928 0.06424,0.144942 0.03823,0.03701 0.0903,0.05973 0.146949,0.0595 l 8.6449883,-0.03693 -0.64821,0.669602 z"
   id="path1"
   style="stroke-width:0.205398" />&#10;</svg>
